<mxfile host="app.diagrams.net" modified="2024-05-16T21:34:34.867Z" agent="Mozilla/5.0 (Windows NT 10.0; Win64; x64) AppleWebKit/537.36 (KHTML, like Gecko) Chrome/124.0.0.0 Safari/537.36" etag="iSZLEoQxOGGjpBUgDfsA" version="24.4.3" type="device">
  <diagram name="Pagina-1" id="ASqctB0UQknIbJ9-0eL9">
    <mxGraphModel dx="1290" dy="556" grid="1" gridSize="10" guides="1" tooltips="1" connect="1" arrows="1" fold="1" page="1" pageScale="1" pageWidth="827" pageHeight="1169" math="0" shadow="0">
      <root>
        <mxCell id="0" />
        <mxCell id="1" parent="0" />
        <mxCell id="GzoCvhVGqwRnV1ZbHViu-1" value="&lt;span style=&quot;text-wrap: nowrap;&quot;&gt;DeleteImageFromAlbum&lt;/span&gt;" style="shape=umlLifeline;perimeter=lifelinePerimeter;whiteSpace=wrap;html=1;container=0;dropTarget=0;collapsible=0;recursiveResize=0;outlineConnect=0;portConstraint=eastwest;newEdgeStyle={&quot;edgeStyle&quot;:&quot;elbowEdgeStyle&quot;,&quot;elbow&quot;:&quot;vertical&quot;,&quot;curved&quot;:0,&quot;rounded&quot;:0};" parent="1" vertex="1">
          <mxGeometry x="86" y="50" width="144" height="380" as="geometry" />
        </mxCell>
        <mxCell id="GzoCvhVGqwRnV1ZbHViu-2" value="" style="html=1;points=[];perimeter=orthogonalPerimeter;outlineConnect=0;targetShapes=umlLifeline;portConstraint=eastwest;newEdgeStyle={&quot;edgeStyle&quot;:&quot;elbowEdgeStyle&quot;,&quot;elbow&quot;:&quot;vertical&quot;,&quot;curved&quot;:0,&quot;rounded&quot;:0};" parent="GzoCvhVGqwRnV1ZbHViu-1" vertex="1">
          <mxGeometry x="67" y="75" width="10" height="295" as="geometry" />
        </mxCell>
        <mxCell id="GzoCvhVGqwRnV1ZbHViu-3" value="ImageDAO" style="shape=umlLifeline;perimeter=lifelinePerimeter;whiteSpace=wrap;html=1;container=0;dropTarget=0;collapsible=0;recursiveResize=0;outlineConnect=0;portConstraint=eastwest;newEdgeStyle={&quot;edgeStyle&quot;:&quot;elbowEdgeStyle&quot;,&quot;elbow&quot;:&quot;vertical&quot;,&quot;curved&quot;:0,&quot;rounded&quot;:0};" parent="1" vertex="1">
          <mxGeometry x="450" y="50" width="100" height="380" as="geometry" />
        </mxCell>
        <mxCell id="GzoCvhVGqwRnV1ZbHViu-4" value="" style="html=1;points=[];perimeter=orthogonalPerimeter;outlineConnect=0;targetShapes=umlLifeline;portConstraint=eastwest;newEdgeStyle={&quot;edgeStyle&quot;:&quot;elbowEdgeStyle&quot;,&quot;elbow&quot;:&quot;vertical&quot;,&quot;curved&quot;:0,&quot;rounded&quot;:0};" parent="GzoCvhVGqwRnV1ZbHViu-3" vertex="1">
          <mxGeometry x="45" y="210" width="10" height="130" as="geometry" />
        </mxCell>
        <mxCell id="GzoCvhVGqwRnV1ZbHViu-5" value="new ImageDAO()" style="html=1;verticalAlign=bottom;endArrow=block;edgeStyle=elbowEdgeStyle;elbow=horizontal;curved=0;rounded=0;" parent="1" edge="1">
          <mxGeometry relative="1" as="geometry">
            <mxPoint x="170" y="273" as="sourcePoint" />
            <Array as="points">
              <mxPoint x="226" y="273" />
            </Array>
            <mxPoint x="495" y="273" as="targetPoint" />
          </mxGeometry>
        </mxCell>
        <mxCell id="GzoCvhVGqwRnV1ZbHViu-6" value="GoToAlbumPage" style="shape=umlLifeline;perimeter=lifelinePerimeter;whiteSpace=wrap;html=1;container=0;dropTarget=0;collapsible=0;recursiveResize=0;outlineConnect=0;portConstraint=eastwest;newEdgeStyle={&quot;edgeStyle&quot;:&quot;elbowEdgeStyle&quot;,&quot;elbow&quot;:&quot;vertical&quot;,&quot;curved&quot;:0,&quot;rounded&quot;:0};" parent="1" vertex="1">
          <mxGeometry x="690" y="50" width="100" height="380" as="geometry" />
        </mxCell>
        <mxCell id="GzoCvhVGqwRnV1ZbHViu-7" value="" style="html=1;points=[];perimeter=orthogonalPerimeter;outlineConnect=0;targetShapes=umlLifeline;portConstraint=eastwest;newEdgeStyle={&quot;edgeStyle&quot;:&quot;elbowEdgeStyle&quot;,&quot;elbow&quot;:&quot;vertical&quot;,&quot;curved&quot;:0,&quot;rounded&quot;:0};" parent="GzoCvhVGqwRnV1ZbHViu-6" vertex="1">
          <mxGeometry x="45" y="330" width="10" height="40" as="geometry" />
        </mxCell>
        <mxCell id="GzoCvhVGqwRnV1ZbHViu-8" value="redirect" style="html=1;verticalAlign=bottom;endArrow=block;edgeStyle=elbowEdgeStyle;elbow=horizontal;curved=0;rounded=0;" parent="1" edge="1">
          <mxGeometry relative="1" as="geometry">
            <mxPoint x="164" y="405" as="sourcePoint" />
            <Array as="points">
              <mxPoint x="232" y="405" />
            </Array>
            <mxPoint x="735" y="405" as="targetPoint" />
          </mxGeometry>
        </mxCell>
        <mxCell id="GzoCvhVGqwRnV1ZbHViu-10" value="deleteImageFromAlbum(albumId, imageId)" style="html=1;verticalAlign=bottom;endArrow=block;edgeStyle=elbowEdgeStyle;elbow=horizontal;curved=0;rounded=0;" parent="1" edge="1">
          <mxGeometry x="0.0007" relative="1" as="geometry">
            <mxPoint x="165.00333333333325" y="384" as="sourcePoint" />
            <Array as="points">
              <mxPoint x="233.17" y="369" />
            </Array>
            <mxPoint x="490" y="384" as="targetPoint" />
            <mxPoint as="offset" />
          </mxGeometry>
        </mxCell>
        <mxCell id="GzoCvhVGqwRnV1ZbHViu-11" value="doGet" style="html=1;verticalAlign=bottom;startArrow=oval;endArrow=block;startSize=8;edgeStyle=elbowEdgeStyle;elbow=horizontal;curved=0;rounded=0;" parent="1" edge="1">
          <mxGeometry relative="1" as="geometry">
            <mxPoint x="86" y="140" as="sourcePoint" />
            <mxPoint x="151" y="140" as="targetPoint" />
          </mxGeometry>
        </mxCell>
        <mxCell id="GzoCvhVGqwRnV1ZbHViu-12" value="DeleteImageFromAlbum" style="text;html=1;align=center;verticalAlign=middle;resizable=0;points=[];autosize=1;strokeColor=none;fillColor=none;" parent="1" vertex="1">
          <mxGeometry x="20" y="10" width="150" height="30" as="geometry" />
        </mxCell>
        <mxCell id="GzoCvhVGqwRnV1ZbHViu-13" value="GET&lt;div&gt;/DeleteImageFromAlbum&lt;/div&gt;&lt;div&gt;?albumId=albumId&lt;/div&gt;&lt;div&gt;?imageId=image.id&lt;/div&gt;" style="text;html=1;align=center;verticalAlign=middle;resizable=0;points=[];autosize=1;strokeColor=none;fillColor=none;" parent="1" vertex="1">
          <mxGeometry y="160" width="160" height="70" as="geometry" />
        </mxCell>
        <mxCell id="AQ9__J-C5RJgyOnPVVvp-12" value="AlbumDAO" style="shape=umlLifeline;perimeter=lifelinePerimeter;whiteSpace=wrap;html=1;container=0;dropTarget=0;collapsible=0;recursiveResize=0;outlineConnect=0;portConstraint=eastwest;newEdgeStyle={&quot;edgeStyle&quot;:&quot;elbowEdgeStyle&quot;,&quot;elbow&quot;:&quot;vertical&quot;,&quot;curved&quot;:0,&quot;rounded&quot;:0};" vertex="1" parent="1">
          <mxGeometry x="304" y="50" width="100" height="321" as="geometry" />
        </mxCell>
        <mxCell id="AQ9__J-C5RJgyOnPVVvp-13" value="" style="html=1;points=[];perimeter=orthogonalPerimeter;outlineConnect=0;targetShapes=umlLifeline;portConstraint=eastwest;newEdgeStyle={&quot;edgeStyle&quot;:&quot;elbowEdgeStyle&quot;,&quot;elbow&quot;:&quot;vertical&quot;,&quot;curved&quot;:0,&quot;rounded&quot;:0};" vertex="1" parent="AQ9__J-C5RJgyOnPVVvp-12">
          <mxGeometry x="45" y="72" width="10" height="86" as="geometry" />
        </mxCell>
        <mxCell id="AQ9__J-C5RJgyOnPVVvp-14" value="" style="endArrow=classic;html=1;rounded=0;exitX=0.025;exitY=1.03;exitDx=0;exitDy=0;exitPerimeter=0;" edge="1" parent="1">
          <mxGeometry width="50" height="50" relative="1" as="geometry">
            <mxPoint x="165" y="130.99999999999997" as="sourcePoint" />
            <mxPoint x="345" y="132" as="targetPoint" />
          </mxGeometry>
        </mxCell>
        <mxCell id="AQ9__J-C5RJgyOnPVVvp-15" value="" style="endArrow=classic;html=1;rounded=0;exitX=0.025;exitY=1.03;exitDx=0;exitDy=0;exitPerimeter=0;" edge="1" parent="1" target="AQ9__J-C5RJgyOnPVVvp-13">
          <mxGeometry width="50" height="50" relative="1" as="geometry">
            <mxPoint x="166" y="149.99999999999997" as="sourcePoint" />
            <mxPoint x="340" y="151" as="targetPoint" />
          </mxGeometry>
        </mxCell>
        <mxCell id="AQ9__J-C5RJgyOnPVVvp-16" value="" style="endArrow=classic;html=1;rounded=0;exitX=0.025;exitY=1.03;exitDx=0;exitDy=0;exitPerimeter=0;" edge="1" parent="1">
          <mxGeometry width="50" height="50" relative="1" as="geometry">
            <mxPoint x="165" y="190.99999999999997" as="sourcePoint" />
            <mxPoint x="349" y="191" as="targetPoint" />
          </mxGeometry>
        </mxCell>
        <mxCell id="AQ9__J-C5RJgyOnPVVvp-17" value="&lt;font style=&quot;font-size: 10px;&quot;&gt;new&amp;nbsp; AlbumDAO()&lt;/font&gt;" style="text;html=1;align=center;verticalAlign=middle;resizable=0;points=[];autosize=1;strokeColor=none;fillColor=none;" vertex="1" parent="1">
          <mxGeometry x="175" y="111" width="100" height="30" as="geometry" />
        </mxCell>
        <mxCell id="AQ9__J-C5RJgyOnPVVvp-18" value="&lt;span style=&quot;font-size: 10px;&quot;&gt;findAlbumById(abumId)&lt;/span&gt;" style="text;html=1;align=center;verticalAlign=middle;resizable=0;points=[];autosize=1;strokeColor=none;fillColor=none;" vertex="1" parent="1">
          <mxGeometry x="190" y="127" width="130" height="30" as="geometry" />
        </mxCell>
        <mxCell id="AQ9__J-C5RJgyOnPVVvp-19" value="album" style="html=1;verticalAlign=bottom;endArrow=open;dashed=1;endSize=8;edgeStyle=elbowEdgeStyle;elbow=vertical;curved=0;rounded=0;" edge="1" parent="1" source="AQ9__J-C5RJgyOnPVVvp-13">
          <mxGeometry x="0.4591" relative="1" as="geometry">
            <mxPoint x="165" y="171" as="targetPoint" />
            <Array as="points">
              <mxPoint x="295" y="171" />
            </Array>
            <mxPoint x="288" y="167" as="sourcePoint" />
            <mxPoint as="offset" />
          </mxGeometry>
        </mxCell>
        <mxCell id="AQ9__J-C5RJgyOnPVVvp-20" value="&lt;span style=&quot;font-size: 10px;&quot;&gt;getUserByAlbumId(albumId)&lt;/span&gt;" style="text;html=1;align=center;verticalAlign=middle;resizable=0;points=[];autosize=1;strokeColor=none;fillColor=none;" vertex="1" parent="1">
          <mxGeometry x="183" y="165" width="150" height="30" as="geometry" />
        </mxCell>
        <mxCell id="AQ9__J-C5RJgyOnPVVvp-21" value="" style="endArrow=classic;html=1;rounded=0;" edge="1" parent="1">
          <mxGeometry width="50" height="50" relative="1" as="geometry">
            <mxPoint x="163" y="230" as="sourcePoint" />
            <mxPoint x="628" y="230" as="targetPoint" />
          </mxGeometry>
        </mxCell>
        <mxCell id="AQ9__J-C5RJgyOnPVVvp-22" value="&lt;span style=&quot;font-size: 10px;&quot;&gt;[album===null || userId!=user.getId()] displayError(request, response, &quot;error string&quot;&lt;/span&gt;" style="text;html=1;align=center;verticalAlign=middle;resizable=0;points=[];autosize=1;strokeColor=none;fillColor=none;" vertex="1" parent="1">
          <mxGeometry x="210" y="205" width="390" height="30" as="geometry" />
        </mxCell>
        <mxCell id="AQ9__J-C5RJgyOnPVVvp-23" value="userId" style="html=1;verticalAlign=bottom;endArrow=open;dashed=1;endSize=8;edgeStyle=elbowEdgeStyle;elbow=vertical;curved=0;rounded=0;" edge="1" parent="1">
          <mxGeometry x="0.4591" relative="1" as="geometry">
            <mxPoint x="164" y="207" as="targetPoint" />
            <Array as="points">
              <mxPoint x="294" y="207" />
            </Array>
            <mxPoint x="348" y="207" as="sourcePoint" />
            <mxPoint as="offset" />
          </mxGeometry>
        </mxCell>
        <mxCell id="AQ9__J-C5RJgyOnPVVvp-24" value="ErrorHandler" style="shape=umlLifeline;perimeter=lifelinePerimeter;whiteSpace=wrap;html=1;container=0;dropTarget=0;collapsible=0;recursiveResize=0;outlineConnect=0;portConstraint=eastwest;newEdgeStyle={&quot;edgeStyle&quot;:&quot;elbowEdgeStyle&quot;,&quot;elbow&quot;:&quot;vertical&quot;,&quot;curved&quot;:0,&quot;rounded&quot;:0};" vertex="1" parent="1">
          <mxGeometry x="580" y="50" width="100" height="380" as="geometry" />
        </mxCell>
        <mxCell id="AQ9__J-C5RJgyOnPVVvp-25" value="" style="html=1;points=[];perimeter=orthogonalPerimeter;outlineConnect=0;targetShapes=umlLifeline;portConstraint=eastwest;newEdgeStyle={&quot;edgeStyle&quot;:&quot;elbowEdgeStyle&quot;,&quot;elbow&quot;:&quot;vertical&quot;,&quot;curved&quot;:0,&quot;rounded&quot;:0};" vertex="1" parent="AQ9__J-C5RJgyOnPVVvp-24">
          <mxGeometry x="45" y="126" width="10" height="204" as="geometry" />
        </mxCell>
        <mxCell id="AQ9__J-C5RJgyOnPVVvp-27" value="" style="endArrow=classic;html=1;rounded=0;exitX=1.02;exitY=0.085;exitDx=0;exitDy=0;exitPerimeter=0;" edge="1" parent="1" target="GzoCvhVGqwRnV1ZbHViu-4">
          <mxGeometry width="50" height="50" relative="1" as="geometry">
            <mxPoint x="164" y="293.5" as="sourcePoint" />
            <mxPoint x="468" y="293.5" as="targetPoint" />
          </mxGeometry>
        </mxCell>
        <mxCell id="AQ9__J-C5RJgyOnPVVvp-28" value="image" style="html=1;verticalAlign=bottom;endArrow=open;dashed=1;endSize=8;edgeStyle=elbowEdgeStyle;elbow=vertical;curved=0;rounded=0;" edge="1" parent="1" source="GzoCvhVGqwRnV1ZbHViu-3">
          <mxGeometry x="0.4591" relative="1" as="geometry">
            <mxPoint x="164" y="311" as="targetPoint" />
            <Array as="points">
              <mxPoint x="530" y="311" />
            </Array>
            <mxPoint x="468" y="310.94827586206895" as="sourcePoint" />
            <mxPoint as="offset" />
          </mxGeometry>
        </mxCell>
        <mxCell id="AQ9__J-C5RJgyOnPVVvp-29" value="" style="endArrow=classic;html=1;rounded=0;exitX=1.02;exitY=0.085;exitDx=0;exitDy=0;exitPerimeter=0;" edge="1" parent="1" target="GzoCvhVGqwRnV1ZbHViu-4">
          <mxGeometry width="50" height="50" relative="1" as="geometry">
            <mxPoint x="167" y="326" as="sourcePoint" />
            <mxPoint x="468" y="326" as="targetPoint" />
          </mxGeometry>
        </mxCell>
        <mxCell id="AQ9__J-C5RJgyOnPVVvp-30" value="&lt;span style=&quot;font-size: 10px;&quot;&gt;albumContainsImage(albumId, imageId)&lt;/span&gt;" style="text;html=1;align=center;verticalAlign=middle;resizable=0;points=[];autosize=1;strokeColor=none;fillColor=none;" vertex="1" parent="1">
          <mxGeometry x="204" y="302" width="200" height="30" as="geometry" />
        </mxCell>
        <mxCell id="AQ9__J-C5RJgyOnPVVvp-31" value="contained" style="html=1;verticalAlign=bottom;endArrow=open;dashed=1;endSize=8;edgeStyle=elbowEdgeStyle;elbow=vertical;curved=0;rounded=0;" edge="1" parent="1">
          <mxGeometry x="0.4591" relative="1" as="geometry">
            <mxPoint x="163" y="345" as="targetPoint" />
            <Array as="points">
              <mxPoint x="528" y="345" />
            </Array>
            <mxPoint x="496" y="345.12068965517244" as="sourcePoint" />
            <mxPoint as="offset" />
          </mxGeometry>
        </mxCell>
        <mxCell id="AQ9__J-C5RJgyOnPVVvp-32" value="&lt;span style=&quot;font-size: 10px;&quot;&gt;findImageById(imageId)&lt;/span&gt;" style="text;html=1;align=center;verticalAlign=middle;resizable=0;points=[];autosize=1;strokeColor=none;fillColor=none;" vertex="1" parent="1">
          <mxGeometry x="231" y="270" width="130" height="30" as="geometry" />
        </mxCell>
        <mxCell id="AQ9__J-C5RJgyOnPVVvp-33" value="" style="endArrow=classic;html=1;rounded=0;" edge="1" parent="1" target="AQ9__J-C5RJgyOnPVVvp-25">
          <mxGeometry width="50" height="50" relative="1" as="geometry">
            <mxPoint x="163" y="364.5" as="sourcePoint" />
            <mxPoint x="580" y="365" as="targetPoint" />
          </mxGeometry>
        </mxCell>
        <mxCell id="AQ9__J-C5RJgyOnPVVvp-34" value="&lt;span style=&quot;font-size: 10px;&quot;&gt;[image==null || contained==false] displayError (request, response, &quot;error string&quot;)&lt;/span&gt;" style="text;html=1;align=center;verticalAlign=middle;resizable=0;points=[];autosize=1;strokeColor=none;fillColor=none;" vertex="1" parent="1">
          <mxGeometry x="230" y="341" width="380" height="30" as="geometry" />
        </mxCell>
      </root>
    </mxGraphModel>
  </diagram>
</mxfile>
